<svg xmlns="http://www.w3.org/2000/svg" width="800" height="800" viewBox="0 0 205.59711 200.60436">
    <!-- Crimson background -->
    <rect width="100%" height="100%" fill="#8B0000" />

    <!-- Logo in white, centered -->
    <g transform="translate(102.79855,100.30218) scale(1,1) translate(-102.79855,-100.30218)">
        <g style="stroke-width:.130149">
            <path d="M0 0c-.023.266-.042.535-.067.795-.079.011-.158.014-.236.019-.035-.175.016-.259-.17-.24C-.677.15-.891-.262-1.098-.685l-.233.025c-.213 1.002-1.609.018-2.358.098-.329-.465-.931-.833-1.47-.784.012.049.013.082.028.13-.015.129-.016.265-.036.403-.074.004-.156.006-.231.016-.045-.201-.056-.646-.253-.63a1.517 1.517 0 0 1-.027-.124c-1.463.082-2.885-.662-4.272-.961-.788-.175-1.538-.279-2.312-.461-.319-.125-.641-.257-.966-.39-.158-.026-.321-.045-.47-.064-.216.023-.108-.35-.115-.514-.038.007-.075.007-.117.011-.008-.041-.018-.08-.026-.123-.234.022-.287.259-.383.424.01.043.014.087.024.128-.08.011-.151.021-.228.022-.079-.36-3.163-.714-3.731-1.347.151-.018.117.035.086-.141-.261.069-.523.141-.793.208-.091-.44-1.576-.61-1.918-.919-.101-.191-.203-.382-.296-.573a2.651 2.651 0 0 1-.233.015c.042.218.083.435.135.648-.031.002-.08.004-.119.011.012.04.019.085.026.13l-.109.011a1.095 1.095 0 0 0-.03-.128c-.547.055-1.175-.506-1.668-.709-.34-.028-.671-.05-1.006-.085a55.104 55.104 0 0 0-1.15-.314c-.135-.224-.287-.416-.34-.655-.089-.396.113-.593-.059-1.046-.07-.168-.316-.338-.407-.544-.199-.46-.051-.88-.256-1.345-.203-.427-.425-.306-.498-.845-.104-.864.228-1.354-.347-2.247-.191-.287-.443-.371-.487-.76-.04-.452.318-.486.099-1.068-.099-.233-.313-.355-.391-.588-.103-.355.048-.362.083-.628.031-.266-.13-.594-.099-.844.038-.264.2-.264.258-.463.074-.242.101-.223.046-.514-.019-.093-.318-.613-.288-.676.26-.328-.034-.873-.186-1.263-.147-.42-.051-1.245-.43-1.479.392-.408.212-.625.088-1.259-.088-.473-.084-1.038-.111-1.531-.012-.587.512-1.139.351-1.725-.122-.344-.414-.254-.596-.569-.215-.412.08-1.228.164-1.65.156-.867-.078-1.146-.222-1.945-.07-.43.043-.659.153-1.065.238-.902.704-1.652.88-2.594.069-.425-.029-.543.219-1.039.154-.314.205-.566.217-.791L-5.7-31.189c3.904.867 6.272 4.239 6.272 6.933V.271C.388.176.258.104.258.104.137.014.152-.011 0 0"
                  style="fill:#FFFFFF;fill-opacity:1;fill-rule:nonzero;stroke:none;stroke-width:.130149" />
        </g>
        <!-- You can repeat other paths here, changing fill to #FFFFFF -->
    </g>
</svg>
