<svg xmlns="http://www.w3.org/2000/svg" width="232" height="217" viewBox="0 0 232 217">
<g>

<path d="M 92.64 132.31 C91.81,131.48 91.83,109.09 92.66,102.15 C93.23,97.36 93.73,96.48 97.30,93.90 C99.91,92.00 101.51,90.83 102.48,91.22 C104.01,91.83 104.00,96.32 104.00,107.93 L 104.00 124.87 L 99.75 128.28 C94.44,132.54 93.44,133.11 92.64,132.31 ZM 93.00 115.24 C93.00,125.50 92.89,129.51 94.11,129.97 C94.96,130.28 96.45,128.87 99.07,126.63 L 102.43 123.76 L 102.24 109.33 C102.14,101.39 101.79,94.48 101.48,93.96 C100.84,92.94 96.29,95.40 94.25,97.87 C93.37,98.94 93.00,104.03 93.00,115.24 ZM 140.61 126.32 C139.57,126.61 138.39,126.85 137.03,127.07 C131.36,127.99 130.51,127.89 128.61,126.16 C127.45,125.10 125.56,123.95 124.41,123.60 C122.24,122.94 120.29,119.95 119.79,116.50 C119.63,115.40 119.14,114.23 118.69,113.91 C117.38,112.94 119.10,103.27 120.93,101.31 C121.85,100.31 122.59,99.05 122.56,98.50 C122.54,97.95 124.76,96.27 127.51,94.77 C133.28,91.61 137.04,91.68 143.94,95.06 C149.32,97.69 150.98,98.01 153.21,96.86 C154.37,96.26 154.69,95.38 154.21,94.15 C153.11,91.32 146.48,86.00 144.07,86.00 C142.88,86.00 140.64,85.35 139.10,84.55 C136.73,83.33 135.54,83.30 131.40,84.40 C129.03,85.03 126.91,85.75 125.02,86.58 C127.19,85.59 129.64,84.77 132.39,84.10 C138.01,82.72 141.60,83.29 148.16,86.60 C152.06,88.56 157.00,93.43 157.00,95.31 C157.00,96.16 149.97,100.00 148.41,100.00 C147.60,100.00 146.70,99.38 146.41,98.63 C145.44,96.10 138.42,93.69 133.61,94.23 C125.53,95.15 120.00,101.58 120.00,110.07 C120.00,115.82 121.52,119.26 125.90,123.42 C128.67,126.06 129.66,126.35 135.91,126.42 C137.97,126.45 139.46,126.44 140.61,126.32 ZM 72.78 103.44 C75.50,101.54 75.73,96.97 73.23,94.71 C71.33,92.99 60.03,91.51 57.59,92.58 C57.69,92.46 57.80,92.37 57.91,92.28 C60.30,90.45 70.52,90.66 72.43,92.57 C73.29,93.44 74.00,93.83 74.00,93.45 C74.00,93.07 74.60,93.25 75.33,93.86 C76.08,94.48 76.48,96.18 76.25,97.76 C75.58,102.33 72.77,105.12 67.92,106.06 C61.05,107.39 58.63,107.14 56.88,104.94 C56.74,104.77 56.62,104.58 56.51,104.36 C59.30,105.59 70.29,105.18 72.78,103.44 ZM 85.06 116.99 C84.64,116.37 84.08,116.00 83.39,116.00 C82.63,116.00 82.00,115.31 82.00,114.47 C82.00,113.63 81.32,112.68 80.50,112.36 C78.65,111.65 78.57,110.92 81.00,107.83 C79.63,109.84 79.88,110.74 81.55,111.38 C82.79,111.86 84.17,114.24 85.06,116.99 ZM 111.69 119.75 C111.42,119.11 111.17,118.46 110.92,117.78 C109.17,112.99 109.15,112.24 110.59,105.91 C111.51,101.87 112.78,98.49 114.51,95.65 C111.70,100.96 108.73,111.32 110.11,111.83 C110.60,112.02 111.00,113.84 111.00,115.89 C111.00,117.11 111.24,118.41 111.69,119.75 ZM 56.69 94.06 C56.17,95.82 55.79,98.91 55.77,101.53 C55.50,99.07 55.85,96.05 56.69,94.06 ZM 61.43 136.82 C70.57,136.62 75.03,136.34 78.05,134.85 C75.77,136.31 73.13,136.56 61.43,136.82 ZM 125.56 134.95 C121.12,132.74 117.69,129.83 115.00,125.91 C117.68,129.55 121.45,132.91 125.56,134.95 ZM 83.24 105.07 C84.93,102.81 85.84,100.63 85.98,98.43 C85.88,100.77 84.96,103.01 83.24,105.07 ZM 85.09 126.32 C85.62,124.85 85.92,123.28 85.99,121.81 C86.00,121.98 86.00,122.15 86.00,122.32 C86.00,123.55 85.67,124.92 85.09,126.32 ZM 148.87 120.75 L 146.10 123.41 C146.03,123.47 145.96,123.54 145.89,123.60 L 148.87 120.75 Z" fill="rgba(204,47,56,1)"/>

<path d="M 46.80 126.82 C46.69,121.15 46.55,109.44 46.49,100.81 L 46.39 85.11 L 49.94 84.60 C61.55,82.95 68.95,82.90 73.51,84.45 C80.35,86.78 81.59,87.59 83.91,91.36 C87.09,96.50 86.65,101.03 82.50,106.00 C78.60,110.67 78.33,111.53 80.50,112.36 C81.32,112.68 82.00,113.63 82.00,114.47 C82.00,115.31 82.63,116.00 83.39,116.00 C86.70,116.00 86.92,124.35 83.75,129.01 C79.08,135.88 77.40,136.47 61.43,136.82 L 47.00 137.15 ZM 125.56 134.95 C117.68,131.02 111.00,122.28 111.00,115.89 C111.00,113.84 110.60,112.02 110.11,111.83 C108.57,111.26 112.45,98.41 115.48,94.03 C118.61,89.51 123.68,86.44 131.40,84.40 C135.54,83.30 136.73,83.33 139.10,84.55 C140.64,85.35 142.88,86.00 144.07,86.00 C146.48,86.00 153.11,91.32 154.21,94.15 C154.69,95.38 154.37,96.26 153.21,96.86 C150.98,98.01 149.32,97.69 143.94,95.06 C137.04,91.68 133.28,91.61 127.51,94.77 C124.76,96.27 122.54,97.95 122.56,98.50 C122.59,99.05 121.85,100.31 120.93,101.31 C119.10,103.27 117.38,112.94 118.69,113.91 C119.14,114.23 119.63,115.40 119.79,116.50 C120.29,119.95 122.24,122.94 124.41,123.60 C125.56,123.95 127.45,125.10 128.61,126.16 C130.51,127.89 131.36,127.99 137.03,127.07 C141.58,126.34 144.10,125.32 146.10,123.41 L 148.87 120.75 L 152.43 122.96 C154.39,124.17 156.00,125.49 156.00,125.88 C156.00,127.44 148.28,133.91 144.63,135.41 C139.29,137.60 130.44,137.39 125.56,134.95 ZM 93.00 115.24 C93.00,104.03 93.37,98.94 94.25,97.87 C96.29,95.40 100.84,92.94 101.48,93.96 C101.79,94.48 102.14,101.39 102.24,109.33 L 102.43 123.76 L 99.07 126.63 C96.45,128.87 94.96,130.28 94.11,129.97 C92.89,129.51 93.00,125.50 93.00,115.24 ZM 67.92 106.06 C72.77,105.12 75.58,102.33 76.25,97.76 C76.48,96.18 76.08,94.48 75.33,93.86 C74.60,93.25 74.00,93.07 74.00,93.45 C74.00,93.83 73.29,93.44 72.43,92.57 C70.52,90.66 60.30,90.45 57.91,92.28 C55.53,94.10 54.86,102.41 56.88,104.94 C58.63,107.14 61.05,107.39 67.92,106.06 ZM 73.69 126.83 C76.54,124.14 76.74,119.18 74.12,116.36 C72.68,114.82 70.78,114.28 66.08,114.11 C56.40,113.77 56.00,114.05 56.00,121.48 C56.00,125.63 56.43,128.01 57.25,128.34 C57.94,128.62 61.40,128.88 64.94,128.92 C70.23,128.99 71.78,128.62 73.69,126.83 Z" fill="rgba(222,44,53,1)"/>

</g>
</svg>