<svg xmlns="http://www.w3.org/2000/svg" width="205.59711mm" height="200.60435mm" viewBox="0 0 205.59711 200.60436"><g style="stroke-width:.493737"><g style="stroke-width:.130149"><path d="M0 0c-.023.266-.042.535-.067.795-.079.011-.158.014-.236.019-.035-.175.016-.259-.17-.24C-.677.15-.891-.262-1.098-.685l-.233.025c-.213 1.002-1.609.018-2.358.098-.329-.465-.931-.833-1.47-.784.012.049.013.082.028.13-.015.129-.016.265-.036.403-.074.004-.156.006-.231.016-.045-.201-.056-.646-.253-.63a1.517 1.517 0 0 1-.027-.124c-1.463.082-2.885-.662-4.272-.961-.788-.175-1.538-.279-2.312-.461-.319-.125-.641-.257-.966-.39-.158-.026-.321-.045-.47-.064-.216.023-.108-.35-.115-.514-.038.007-.075.007-.117.011-.008-.041-.018-.08-.026-.123-.234.022-.287.259-.383.424.01.043.014.087.024.128-.08.011-.151.021-.228.022-.079-.36-3.163-.714-3.731-1.347.151-.018.117.035.086-.141-.261.069-.523.141-.793.208-.091-.44-1.576-.61-1.918-.919-.101-.191-.203-.382-.296-.573a2.651 2.651 0 0 1-.233.015c.042.218.083.435.135.648-.031.002-.08.004-.119.011.012.04.019.085.026.13l-.109.011a1.095 1.095 0 0 0-.03-.128c-.547.055-1.175-.506-1.668-.709-.34-.028-.671-.05-1.006-.085a55.104 55.104 0 0 0-1.15-.314c-.135-.224-.287-.416-.34-.655-.089-.396.113-.593-.059-1.046-.07-.168-.316-.338-.407-.544-.199-.46-.051-.88-.256-1.345-.203-.427-.425-.306-.498-.845-.104-.864.228-1.354-.347-2.247-.191-.287-.443-.371-.487-.76-.04-.452.318-.486.099-1.068-.099-.233-.313-.355-.391-.588-.103-.355.048-.362.083-.628.031-.266-.13-.594-.099-.844.038-.264.2-.264.258-.463.074-.242.101-.223.046-.514-.019-.093-.318-.613-.288-.676.26-.328-.034-.873-.186-1.263-.147-.42-.051-1.245-.43-1.479.392-.408.212-.625.088-1.259-.088-.473-.084-1.038-.111-1.531-.012-.587.512-1.139.351-1.725-.122-.344-.414-.254-.596-.569-.215-.412.08-1.228.164-1.65.156-.867-.078-1.146-.222-1.945-.07-.43.043-.659.153-1.065.238-.902.704-1.652.88-2.594.069-.425-.029-.543.219-1.039.154-.314.205-.566.217-.791L-5.7-31.189c3.904.867 6.272 4.239 6.272 6.933V.271C.388.176.258.104.258.104.137.014.152-.011 0 0" style="fill:#69c52f;fill-opacity:1;fill-rule:nonzero;stroke:none;stroke-width:.130149" transform="matrix(2.71056 0 0 -2.71056 155.206 68.138)"/></g><g style="stroke-width:.130149"><path d="M0 0c.223.401.449.401.52.867.057.278 1.522 3.385 1.524 3.407-.167.114-.002.247.099.396.148.059 1.287 1.779 1.355 1.752-.042.072-.111.151-.158.213.184.519.784 1.078.931 1.537.157.518.054.404.49.886.267.3.283.647.529.931.181.214.442.363.589.54-.013-.015-.054.231.018.34.138.211.452.445.633.635 1.832 1.829 3.85 3.342 6.026 2.661.936-.294 2.083-.925 2.591-1.673.275-.4.275-1.313.756-1.412-.05-.033-.149-.13-.217-.172.09-.056.147-.256.256-.318-.433-.315-.205-.768-.304-1.115-.115-.403-.411-.815-.691-1.174-.215-.27-.215-.416-.308-.719-.075-.25-.235-.504-.326-.758-.095-.297-.305-.509-.429-.791-.081-.179-.054-.351-.07-.534-.008-.069-.021-.14-.029-.212.018-.052.035-.101.062-.152-.118-.492-.639-.313-.815-.742-.094-.258.306-.374.352-.584.345.098.585.191.605.289.076-.004.158-.009.238-.022-.015-.047-.022-.088-.03-.127.095-.168.148-.406.384-.429.011.044.017.089.023.126.042 0 .084-.007.124-.007.001.158-.098.531.108.511.335.176 2.493.537 2.549.81.145-.067.291-.124.438-.173.933.808 2.115.535 3.136.933.128.048.151 0 .19.191.038-.004.08-.008.117-.009.076-.111.265-.418.318-.164.982.369 1.873.797 2.922.878.184-.052.373-.11.567-.159.137.153.264.15.315.36.137-.058.289-.116.435-.17.222.186 1.148.372 1.185.542l.111-.013c-.035-.162-.061-.122.091-.136.015.048.019.081.03.129.589.116 1.29.528 1.886.476.06-.109.056-.137.202-.147.309.242.635.326 1.016.293.521.252.994.166 1.569.115.356.272.726.266 1.111.313.118.017.235.033.353.065.179.06.623.222.803.286-1.137 1.7-2.327 2.389-3.769 2.922l-44.69 12.877c-4.816 1.438-8.463-2.469-8.463-5.93v-53.4c0-3.465 3.509-6.754 7.347-6.043l6.218 1.308c0 .02 0 .046-.003.067.077.304-.19.574.021.89a4.248 4.248 0 0 0-.162.198c.04.148.169.273.314.338a1.8 1.8 0 0 0-.027 1.065c-.072.091-.07.179-.279.217.154 1.707.237 3.364.209 5.038.134.412.274.816.407 1.233-.054.038-.129.083-.187.121-.037.034.175 1.009.193 1.104.023.146-.091.277-.051.435.045.166.268.293.286.49.009.205-.131.281-.156.424-.038.41.235.768.358 1.133.206.627.351 1.345.297 1.994.052.013.093.021.143.045-.13-.023.205 1.375.227 1.463.169.466.476 1.048.192 1.523.537.188.33.449.318.829-.055.987.349 1.962.596 2.933.103.346.745.674.787 1.172 0 .219-.338.568-.309.756.1.408.447.248.375.778-.07.427-.427.44-.189.933.172.35.656.533.835.91.116.269.15.741.163 1.001.011.422-.125.662.052 1.036.21.42.62.745.828 1.164.229.47.084.466-.028.689-.381-.128-.761-.255-1.144-.385-.551-.054-1.101-.112-1.652-.169-.425-.074-.86-.268-1.301-.391-.383-.031-.766-.063-1.156-.091h-.04c-.794-.126-1.591-.461-2.403-.557-.497-.055-.931-.041-1.396-.208-.376-.185-.752-.373-1.124-.55-.673-.276-1.313-.452-2.004-.702-.23-.085-.434-.271-.687-.244.014-.134.025-.266.037-.394-.975-.008-2.059-.404-2.927.088-.578.334-.574 1.681-.965 1.718.324.889.513 1.905.613 2.825.023.168-.021.132.133.116-.008-.046-.01-.085-.027-.127.159-.018.318-.032.469-.042.402.566 2.066 2.287 2.733 2.226.049-.082.088-.139.118-.009.106-.101.241-.285.408-.301.008.041.017.082.024.128.046 0 .081-.011.12-.013.042.203.052.654.253.627.039.174-.01.137.144.121.586-.224 1.469.742 2.059.965.288.118 1.356 0 1.362.024.145.054.246.05.288.232.213-.107.427-.219.639-.324.211.293.428.582.635.88.284.214 1.751.803 1.788.985.116-.009.23-.024.347-.029-.013-.213-.099-.51.126-.539a1.307 1.307 0 0 1-.031-.127c.298.336.148.666.223 1.029.075-.007.154-.018.235-.025.113-.184.249-.418.495-.442.007.047.018.084.028.133.047-.003.082-.009.115-.009.282.703 1.098.968 1.659 1.159.308.108.534.2.566.327.966-.279 1.161.205 2.037.518.495.165.982.331 1.47.497.392.191 1.022.523 1.446.485z" style="fill:#30ad41;fill-opacity:1;fill-rule:nonzero;stroke:none;stroke-width:.130149" transform="matrix(2.71056 0 0 -2.71056 61.644 66.883)"/></g><g style="stroke-width:.130149"><path d="M0 0c-.042-.211.041-.139.202-.153-.014.266.1.546.08.811.2-.021.401.254.637.304.222 1.044.074 1.775 1.496 1.428.074.371.027.485.284.756.032 0 .072-.005.109-.005.149.685.226.548.508 1.103.405-.039.963-.474.977-.853.227-.021.29.398.362.621.087-.009.427.525-.168.56.078.367.263.42.447.721-.201.019-.305.168-.42.299-.521.586.4 1.493.887 1.887.022.083.042.169.053.251-.078.008-.151.017-.23.022-.593-.359-1.301-.291-1.908-.604-.536.051-.874-.24-1.312-.362C1.153 6.559.32 6.45-.533 6.25c-.313-.104-.627-.208-.941-.309-.648-.13-1.305.101-1.987.068-.821-.167-1.65-.323-2.481-.487-.267-.002-.542-.006-.813-.006-.242-.037-.329-.17-.462-.376-.155.006-.105.05-.146-.119-.205.104-.428.217-.64.32-.049-.227-.537-.136-.724-.173-.267-.096-.544-.193-.812-.288a181.53 181.53 0 0 0-2.642-.232c-.515-.168-.775-.237-1.294-.399.731-1.089.911-2.341.911-3.185V-4.51c.407.215 1.072.561 1.158.609-.028-.101.019-.184.089-.245.088-.079.213-.133.295-.176.009.039.023.078.028.126.191-.017.171.176.231.365.443 1.261.943.382 1.684.557.545.129.917.628 1.348.995.035.172-.017.129.139.117-.033-.168-.066-.125.097-.146-.01-.217-.019-.427-.031-.649.088-.006.159-.017.239-.022.042.564.241.85.278 1.42.283-.033 1.186-.132 1.296-.459.084-.005.159-.008.233-.021.109.508.731.065 1.075.078.022.133.05.254.082.387.012.083.036.17.047.256.081-.004.161-.014.235-.024.019-.131.023-.259.037-.396.644-.055.681 1.271 1.282.607a.713.713 0 0 0 .116-.008 5.187 5.187 0 0 1-.036.401c.045-.014.078-.014.121-.018.043.225.229.358.069.714a.465.465 0 0 1-.372-.097c-.155.018-.121-.031-.09.139-.174.019.476.838.488.884.038-.005.077-.011.12-.011C-2.3.7-2.3.521-2.294.351c.075-.013.148-.018.226-.02.165.777 1.176 1.201 1.172.987.081-.007.151-.017.232-.022C-.304.909-.31.421 0 0" style="fill:#699e27;fill-opacity:1;fill-rule:nonzero;stroke:none;stroke-width:.130149" transform="matrix(2.71056 0 0 -2.71056 190.814 55.284)"/></g><g style="stroke-width:.130149"><path d="M0 0c.089-.057.521-.01.667-.03.214-.027.451 0 .675-.007.785-.055 1.47-.205 2.353-.069.947.15 1.699.018 2.624.106.746.072 1.524.277 2.244.279.091-.002.177-.025.275-.008.075.014.18.083.262.102.123.014.183-.035.302.031a.171.171 0 0 1 .052-.031c.128 0 .6.151.526.311 0 .005-.016.005-.025.017.074.018.171.08.253.094.116.017.174-.031.297.032.022-.011.027-.026.049-.035.136.003.608.157.535.315-.06.098-.488.093-.632.113-.165.015-.456-.054-.644-.068-.185 0-.357.014-.564-.047-.054-.018-.134-.068-.19-.079-.121-.024-.129.07-.194.109-.094.054-.194 0-.306-.039-.149-.059-.052.006-.131.033-.032.006-.082-.024-.109-.024-.049.004-.057.047-.105.047-.165-.056-.298-.047-.479-.076-.048.1-.215.051-.338.059-.066 0-.113.049-.179.041l-.004.004c.826.087 1.196-.028 2.035.055.746.076 1.52.275 2.236.285.103-.01.177-.031.279-.018.075.021.18.092.261.099.113.02.186-.032.307.037.016-.011.028-.025.039-.037.137.005.612.161.535.315-.053.1-.486.092-.629.111-.167.021-.457-.052-.636-.058-.184-.006-.366.01-.573-.053-.05-.017-.128-.066-.184-.078-.123-.027-.123.068-.194.111-.094.055-.202 0-.311-.043-.148-.06-.048.002-.127.032-.034.011-.081-.026-.108-.022-.051.012-.053.051-.101.055-.166-.065-.308-.059-.48-.085-.053.098-.224.052-.337.063-.067.006-.116.046-.189.037-.032-.002-.176-.058-.182-.051a2.257 2.257 0 0 1-.369.069c-.167-.009-.335-.029-.511-.031-.154-.002-.28.056-.455-.039-.178-.107-.242-.028-.343.041-.047.033-.114.086-.185.095-.08.002-.172-.037-.247-.022-.058.004-.084.046-.147.05-.138.002-.252-.075-.216-.186a.77.77 0 0 0-.248-.048c-.063.022-.026.085-.054.122-.056.1-.09.233-.292.21-.065-.007-.119-.075-.176-.096-.204-.048-.166-.022-.284.052-.011.007-.139.209-.203.125-.203-.257-.178-.066-.303-.037-.189.037-.299-.009-.523-.009-.042.013-.085.013-.129.013-.088.012-.187.033-.254.047-.149.025-.295.049-.445.082-.075.016-.167.01-.265.004-.007.006-.014.006-.018.011-.031 0-.045-.005-.067-.011-.047 0-.088 0-.123.006-.133.042-.198.131-.345.16-.11.02-.253.008-.384.022-.152.029-.324.037-.496.048-.064.11-.348.14-.612.137-.057.029-.095.068-.105.107.175-.019.319-.039.365-.039.105-.017.244.039.339 0 .096-.059.09-.132.209-.164.313-.068.597-.019.943-.012.27.002.539-.145.793-.182.26-.03.667.011.86-.12.087-.049.529-.006.671-.024.22-.029.454 0 .67-.011.786-.049 1.473-.201 2.354-.061.32.047.605.061.893.069.035-.012.077-.022.102-.041.084-.057.526-.003.676-.026.213-.027.448.006.667-.006.792-.051 1.469-.201 2.355-.064.948.14 1.704.013 2.628.101.745.075 1.523.274 2.246.282.103 0 .18-.036.275-.014.069.018.177.092.259.102.121.014.184-.034.309.03.017-.007.021-.023.046-.03.135.003.601.154.53.314-.057.09-.484.09-.634.11-.158.019-.448-.054-.642-.06-.18-.009-.358.014-.557-.05-.063-.014-.14-.065-.194-.082-.127-.022-.127.07-.192.107-.099.057-.199.004-.309-.037-.152-.056-.051.002-.131.031-.032.006-.084-.021-.115-.019-.045.002-.051.047-.096.05-.166-.062-.306-.052-.483-.084-.051.098-.216.051-.333.059-.069.004-.11.049-.187.044-.034-.005-.173-.056-.187-.052-.037.008-.277.071-.363.065-.087 0-.176-.008-.267-.013-.065.091-.488.091-.638.105-.133.019-.358-.027-.538-.045-.018.003-.035.018-.058.018-.076.009-.166-.032-.243-.023-.056.008-.087.048-.147.056-.101.002-.191-.035-.219-.111-.058-.015-.132-.069-.188-.081a.145.145 0 0 0-.098.012c0 .025 0 .05-.012.069-.055.101-.083.232-.288.209-.068-.007-.124-.078-.174-.094-.21-.052-.169-.024-.291.051-.005.008-.135.208-.201.122-.203-.254-.173-.066-.301-.031-.189.031-.295-.016-.52-.016a2.29 2.29 0 0 0-.388.067c-.146.025-.293.044-.443.074-.139.032-.371-.014-.474.016-.129.041-.15.152-.298.184-.11.017-.304-.022-.433 0l.064.05c.038.01.085.021.123.026.047-.005.091-.005.136-.009.069.004.138.006.215.009.064.005.248-.028.27.074.023.108-.059.099-.161.09-.136-.017-.171.007-.244.066.137.02.284.055.436.06.164.003.385-.087.521-.131.119-.046.174-.142.331-.152.036 0 .415.08.418.117.02-.015.039-.031.065-.048.092.062.138.028.198.019.044-.078.192-.013.267-.056.089.056.114-.048.242.054.354-.144.781-.098 1.177-.169.1.06.172-.008.249.02.107-.083.319.003.447-.036.039.008.083.012.124.019.047-.003.086-.003.132-.007.072.004.147.004.219.007.067.008.249-.019.276.08.021.106-.063.097-.165.086-.139-.019-.183 0-.253.078-.044.034-.106-.033-.143-.029-.046.077-.226.017-.302.054-.289-.179-.668.288-.969.212-.025-.009-.215-.112-.204-.118-.039.025-.077.043-.12.072-.024.026-.014.083-.06.106-.05.01-.078-.028-.126-.037-.066-.017-.234-.023-.282.014-.006.031-.02.045-.034.074-.038.008-.07.025-.111.03-.089.006-.122-.065-.19-.105a1.182 1.182 0 0 0-.317-.042c-.072.006-.025.088-.075.11-.063.015-.12.015-.185.039-.099.044-.174.118-.285.118-.15-.01-.223-.125-.373-.057.27.427-.885.266-1.077.3-.111.023-.17.076-.299.083-.129.006-.232-.005-.348.026-.112.036-.148.139-.274.159-.102.013-.239-.057-.349-.059-.173-.009-.134.029-.243.093-.183.103-.279.208-.498.227-.135.014-.135-.04-.246.031-.059.037-.074.12-.138.166-.133.072-.38-.039-.529.025-.168.071-.356.205-.536.295-.053.032-.167.117-.127.198.031.058.134.085.187.1.148.041.202-.059.327-.068.129-.005.256.009.372-.032.259-.088.218-.304.578-.278.061-.015.126-.144.212-.064.05.054-.023.064-.006.096.023.066.161.023.187-.006.059-.061.044-.107.14-.129.07-.016.147-.02.225-.031.052-.004.279-.03.239.08-.022.049-.064.035-.101.063-.096.066-.163.161-.259.236-.097.06-.247.083-.375.093-.111.016-.137.049-.22.106-.079.041-.167.06-.247.101-.083.049-.18.049-.271.086-.057.024-.083.074-.131.112-.009.024-.028.037-.045.054a.683.683 0 0 0-.015.055c-.134.086-.227-.094-.358-.031-.086.037.018.195-.039.254-.109.095-.337.109-.491.145-.224.056-.195.075-.324.2-.092.088-.094.03-.173.07-.101.051-.253.288-.392.087a.156.156 0 0 0-.154.124c-.197-.052-.414-.189-.179-.301.088-.042.179.014.268-.021.065-.032.108-.093.173-.129.142-.074.342-.111.419-.259.091-.209-.216-.331-.277-.161-.074-.017-.196-.06-.264-.033-.07.025-.096.112-.175.168-.117.048-.331.074-.461.088-.111.012-.363-.064-.429 0-.016.026.043.162.002.223-.048.08-.2.074-.271.144-.019.03-.148.291-.013.293.125 0 .527-.113.596.008.057.121-.069.078-.122.142-.148.183-.213.327-.454.399-.132.041-.327.059-.44.145-.065.053.069.196-.09.277-.091.041-.204.035-.286.092-.101.08-.09.178-.227.252-.054.024-.15.002-.22.029-.137.065-.19.205-.337.268-.139.054-.167-.032-.303.081-.203.192-.216.407-.542.478-.109.022-.192-.024-.287.061-.099.109-.017.212-.191.297-.076.031-.158.008-.224.039-.097.066-.061.107-.106.186-.048.074-.154.113-.197.188-.044.072-.007.115-.032.185-.03.08-.022.082-.094.146-.025.012-.21.065-.215.087 0 .156-.186.213-.304.271-.113.059-.23.23-.356.252-.014.022-.038.045-.065.071-.008.142-.091.168-.232.278a.165.165 0 0 1-.037.039.966.966 0 0 0-.109.185c-.148.458-.082.788-.102 1.169l-16.187-3.428v-.05c-.007-.016-.028-.031-.043-.047.015-.019.036-.034.043-.052.082-.059.072-.198.19-.22v-.094c.042-.029.099-.029.152-.007a.517.517 0 0 1 .212-.27c0-.048.013-.068-.028-.132.174-.173.338-.35.499-.522.374-1.365.936-2.666 1.978-3.603C-12.476 2.004-8.001-.176 0 0" style="fill:#699e27;fill-opacity:1;fill-rule:nonzero;stroke:none;stroke-width:.130149" transform="matrix(2.71056 0 0 -2.71056 86.245 200.167)"/></g><g style="stroke-width:.130149"><path d="M0 0c-.424.038-1.054-.294-1.446-.484-.488-.166-.975-.332-1.47-.497-.876-.314-1.071-.797-2.037-.518-.032-.128-.258-.22-.567-.327-.56-.192-1.376-.456-1.658-1.159-.033 0-.068.006-.115.008-.01-.048-.021-.086-.028-.132-.246.023-.382.257-.495.441-.081.008-.161.019-.235.025-.075-.363.074-.693-.223-1.029.008.043.019.086.031.127-.225.029-.139.326-.126.539-.117.006-.231.021-.347.029-.037-.181-1.504-.77-1.788-.985-.207-.298-.424-.587-.635-.88-.213.106-.426.217-.639.324-.042-.181-.143-.177-.288-.232-.006-.023-1.074.095-1.362-.023-.591-.223-1.473-1.19-2.059-.965-.154.015-.105.052-.144-.121-.201.027-.211-.424-.253-.627-.039.002-.074.012-.12.012-.007-.046-.017-.087-.024-.128-.167.016-.302.201-.409.301-.029-.13-.068-.072-.117.01-.667.061-2.331-1.66-2.733-2.227-.151.01-.31.025-.469.042.017.042.019.081.027.127-.154.017-.11.052-.133-.116-.1-.92-.289-1.935-.614-2.824.392-.037.388-1.385.966-1.719.868-.491 1.951-.096 2.927-.088-.012.128-.023.26-.037.395.253-.028.457.158.687.244.691.25 1.33.426 2.004.701.372.178.748.365 1.124.551.465.167.899.152 1.396.208.812.096 1.609.431 2.403.557h.04c.39.028.773.059 1.155.09.442.123.876.318 1.302.392.551.057 1.101.114 1.652.169.383.13.763.257 1.144.385.111-.224.257-.219.027-.69-.208-.419-.617-.744-.827-1.164-.177-.374-.041-.613-.052-1.036-.013-.26-.047-.731-.164-1.001-.178-.377-.662-.559-.834-.909-.238-.493.119-.507.189-.934.072-.53-.275-.37-.375-.777-.029-.189.309-.537.309-.757-.042-.498-.684-.825-.788-1.172-.246-.97-.65-1.945-.595-2.932.011-.38.219-.642-.318-.829.284-.475-.023-1.057-.192-1.524-.022-.088-.357-1.485-.228-1.463-.049-.023-.09-.031-.142-.045.054-.648-.091-1.367-.297-1.994-.123-.364-.396-.723-.358-1.133.025-.142.165-.218.156-.423-.018-.198-.241-.325-.286-.491-.04-.158.074-.289.05-.434-.017-.095-.229-1.071-.192-1.105.058-.038.133-.083.187-.121-.133-.417-.273-.82-.408-1.232a46.478 46.478 0 0 0-.209-5.038c.209-.038.207-.126.28-.217a1.803 1.803 0 0 1 .027-1.066.552.552 0 0 1-.314-.338c.044-.056.113-.142.162-.198-.211-.315.056-.586-.021-.889.003-.022.003-.047.003-.068l16.187 3.429a1.995 1.995 0 0 1-.217.791c-.248.496-.151.613-.22 1.039-.176.941-.641 1.691-.88 2.594-.109.406-.222.635-.152 1.064.143.8.378 1.078.222 1.946-.084.421-.379 1.238-.164 1.65.181.314.473.225.595.568.161.586-.362 1.139-.35 1.726.026.493.022 1.057.11 1.53.124.635.305.852-.088 1.26.379.233.283 1.058.431 1.478.151.391.445.936.185 1.264-.03.063.27.583.288.676.055.291.029.271-.045.514-.058.199-.22.199-.258.462-.032.25.13.579.098.844-.035.267-.185.274-.083.629.078.232.292.355.392.588.219.582-.14.615-.1 1.067.044.39.296.474.488.761.575.893.243 1.383.346 2.246.074.539.295.418.498.846.205.465.058.885.256 1.345.091.206.337.376.407.544.172.453-.03.65.059 1.045.054.24.205.432.341.656.384.099.772.207 1.149.313.335.035.666.058 1.006.085.493.203 1.121.765 1.668.709a.788.788 0 0 1 .03.129l.11-.012a1.03 1.03 0 0 0-.027-.13c.039-.006.088-.008.12-.01-.052-.213-.093-.43-.135-.649a3.07 3.07 0 0 0 .232-.014c.094.191.195.381.296.573.343.308 1.827.478 1.918.919.271-.068.532-.14.793-.208.031.176.065.123-.086.14.568.633 3.652.988 3.732 1.348.077-.002.148-.012.227-.022-.01-.041-.014-.085-.023-.128.095-.165.148-.403.382-.424.008.043.018.082.027.123.042-.004.079-.004.117-.012.007.164-.102.537.114.515.15.018.313.038.471.063.324.133.646.266.966.391.773.182 1.523.286 2.311.461 1.388.299 2.81 1.043 4.273.961.005.033.015.08.026.124.197-.017.208.429.253.63.075-.01.157-.012.231-.017.02-.138.022-.273.037-.402-.015-.048-.017-.081-.029-.13.539-.049 1.142.318 1.47.783.749-.079 2.146.904 2.358-.098.08-.007.16-.016.234-.024.207.423.421.835.625 1.259.185-.02.135.064.17.24.078-.006.156-.009.235-.019.025-.26.044-.53.067-.795.153-.011.137.013.258.103 0 0 .13.072.315.168v5.574c0 .846-.18 2.098-.91 3.188-.18-.065-.624-.227-.803-.286-.118-.033-.235-.048-.353-.066-.385-.047-.756-.041-1.111-.312-.575.051-1.048.136-1.569-.115a1.365 1.365 0 0 1-1.016-.293c-.146.009-.143.038-.202.146-.596.053-1.297-.359-1.886-.476-.011-.047-.015-.081-.03-.128-.152.013-.126-.027-.091.135-.035.004-.073.008-.111.014-.037-.171-.963-.356-1.185-.542a9.166 9.166 0 0 0-.435.17c-.051-.21-.178-.207-.315-.36-.194.048-.383.107-.567.159-1.049-.081-1.94-.509-2.922-.878-.053-.254-.242.053-.318.164-.038.001-.08.005-.117.009-.039-.192-.062-.144-.19-.192-1.021-.397-2.203-.125-3.136-.932a4.011 4.011 0 0 0-.438.172c-.056-.273-2.214-.633-2.549-.809-.206.019-.108-.354-.109-.512-.039 0-.082.007-.123.007-.006-.036-.012-.081-.023-.126-.236.023-.289.262-.384.43.008.039.015.08.029.127a2.45 2.45 0 0 1-.237.021c-.02-.098-.261-.19-.605-.289-.046.21-.446.326-.352.584.176.43.696.25.815.742-.027.051-.044.101-.062.153.008.072.021.142.029.212.016.182-.011.354.07.534.124.282.334.494.428.791.092.254.252.508.327.758.093.302.093.449.308.718.279.36.576.772.691 1.174.099.348-.129.801.304 1.115-.109.063-.166.262-.257.319.069.042.167.138.218.172-.481.098-.481 1.011-.756 1.412-.508.748-1.655 1.379-2.591 1.673-2.176.68-4.194-.832-6.026-2.662-.181-.189-.495-.423-.633-.634-.072-.11-.031-.356-.018-.34-.147-.178-.408-.326-.589-.54-.246-.284-.262-.631-.529-.932-.436-.481-.333-.367-.49-.886-.147-.459-.747-1.017-.931-1.537.047-.061.116-.14.158-.213-.068.028-1.207-1.693-1.356-1.752-.1-.149-.265-.282-.098-.395C2.296 4.564.831 1.457.773 1.18.703.714.477.714.254.312Z" style="fill:#0a5029;fill-opacity:1;fill-rule:nonzero;stroke:none;stroke-width:.130149" transform="matrix(2.71056 0 0 -2.71056 60.955 67.73)"/></g></g></svg>